<?xml version="1.0" encoding="UTF-8" standalone="no"?>
<!DOCTYPE svg PUBLIC "-//W3C//DTD SVG 1.1//EN"
 "http://www.w3.org/Graphics/SVG/1.1/DTD/svg11.dtd">
<!-- Generated by graphviz version 2.47.0 (20210316.0004)
 -->
<!-- Title: dependencies Pages: 1 -->
<svg width="504pt" height="211pt"
 viewBox="0.00 0.00 504.00 211.00" xmlns="http://www.w3.org/2000/svg" xmlns:xlink="http://www.w3.org/1999/xlink">
<g id="graph0" class="graph" transform="scale(1 1) rotate(0) translate(4 207)">
<title>dependencies</title>
<polygon fill="white" stroke="transparent" points="-4,4 -4,-207 500,-207 500,4 -4,4"/>
<text text-anchor="start" x="227.01" y="-42.4" font-family="Times-12" font-weight="bold" font-size="14.00">Legend</text>
<polygon fill="#ffffb3" stroke="transparent" points="14,-10 14,-30 34,-30 34,-10 14,-10"/>
<text text-anchor="start" x="37.63" y="-15.4" font-family="Times-12" font-size="14.00"> &#160;Declarations</text>
<polygon fill="#8dd3c7" stroke="transparent" points="127,-10 127,-30 147,-30 147,-10 127,-10"/>
<text text-anchor="start" x="150.73" y="-15.4" font-family="Times-12" font-size="14.00"> &#160;Module</text>
<polygon fill="#80b1d3" stroke="transparent" points="213,-10 213,-30 233,-30 233,-10 213,-10"/>
<text text-anchor="start" x="236.78" y="-15.4" font-family="Times-12" font-size="14.00"> &#160;Bootstrap</text>
<polygon fill="#fdb462" stroke="transparent" points="310,-10 310,-30 330,-30 330,-10 310,-10"/>
<text text-anchor="start" x="333.67" y="-15.4" font-family="Times-12" font-size="14.00"> &#160;Providers</text>
<polygon fill="#fb8072" stroke="transparent" points="406,-10 406,-30 426,-30 426,-10 406,-10"/>
<text text-anchor="start" x="429.73" y="-15.4" font-family="Times-12" font-size="14.00"> &#160;Exports</text>
<g id="clust1" class="cluster">
<title>cluster_UserPageModule</title>
<polygon fill="none" stroke="black" stroke-dasharray="1,5" points="106,-70 106,-195 390,-195 390,-70 106,-70"/>
</g>
<g id="clust2" class="cluster">
<title>cluster_UserPageModule_declarations</title>
<polygon fill="none" stroke="black" points="296,-78 296,-130 382,-130 382,-78 296,-78"/>
</g>
<g id="clust4" class="cluster">
<title>cluster_UserPageModule_imports</title>
<polygon fill="none" stroke="black" points="114,-78 114,-130 288,-130 288,-78 114,-78"/>
</g>
<!-- UserPage -->
<g id="node1" class="node">
<title>UserPage</title>
<polygon fill="#ffffb3" stroke="black" points="373.64,-122 304.36,-122 304.36,-86 373.64,-86 373.64,-122"/>
<text text-anchor="middle" x="339" y="-99.8" font-family="Times,serif" font-size="14.00">UserPage</text>
</g>
<!-- UserPageModule -->
<g id="node2" class="node">
<title>UserPageModule</title>
<polygon fill="#8dd3c7" stroke="black" points="319.69,-187 316.69,-191 295.69,-191 292.69,-187 206.31,-187 206.31,-151 319.69,-151 319.69,-187"/>
<text text-anchor="middle" x="263" y="-164.8" font-family="Times,serif" font-size="14.00">UserPageModule</text>
</g>
<!-- UserPage&#45;&gt;UserPageModule -->
<g id="edge1" class="edge">
<title>UserPage&#45;&gt;UserPageModule</title>
<path fill="none" stroke="black" d="M311.89,-122.11C311.89,-122.11 311.89,-140.99 311.89,-140.99"/>
<polygon fill="black" stroke="black" points="308.39,-140.99 311.89,-150.99 315.39,-140.99 308.39,-140.99"/>
</g>
<!-- UserPageRoutingModule -->
<g id="node3" class="node">
<title>UserPageRoutingModule</title>
<polygon fill="#8dd3c7" stroke="black" points="280.31,-122 277.31,-126 256.31,-126 253.31,-122 121.69,-122 121.69,-86 280.31,-86 280.31,-122"/>
<text text-anchor="middle" x="201" y="-99.8" font-family="Times,serif" font-size="14.00">UserPageRoutingModule</text>
</g>
<!-- UserPageRoutingModule&#45;&gt;UserPageModule -->
<g id="edge2" class="edge">
<title>UserPageRoutingModule&#45;&gt;UserPageModule</title>
<path fill="none" stroke="black" d="M243.28,-122.11C243.28,-122.11 243.28,-140.99 243.28,-140.99"/>
<polygon fill="black" stroke="black" points="239.78,-140.99 243.28,-150.99 246.78,-140.99 239.78,-140.99"/>
</g>
</g>
</svg>
