<?xml version="1.0" encoding="UTF-8" standalone="no"?>
<!DOCTYPE svg PUBLIC "-//W3C//DTD SVG 1.1//EN"
 "http://www.w3.org/Graphics/SVG/1.1/DTD/svg11.dtd">
<!-- Generated by graphviz version 2.47.0 (20210316.0004)
 -->
<!-- Title: dependencies Pages: 1 -->
<svg width="1204pt" height="284pt"
 viewBox="0.00 0.00 1204.00 284.00" xmlns="http://www.w3.org/2000/svg" xmlns:xlink="http://www.w3.org/1999/xlink">
<g id="graph0" class="graph" transform="scale(1 1) rotate(0) translate(4 280)">
<title>dependencies</title>
<polygon fill="white" stroke="transparent" points="-4,4 -4,-280 1200,-280 1200,4 -4,4"/>
<text text-anchor="start" x="577.01" y="-42.4" font-family="Times-12" font-weight="bold" font-size="14.00">Legend</text>
<polygon fill="#ffffb3" stroke="transparent" points="364,-10 364,-30 384,-30 384,-10 364,-10"/>
<text text-anchor="start" x="387.63" y="-15.4" font-family="Times-12" font-size="14.00"> &#160;Declarations</text>
<polygon fill="#8dd3c7" stroke="transparent" points="477,-10 477,-30 497,-30 497,-10 477,-10"/>
<text text-anchor="start" x="500.73" y="-15.4" font-family="Times-12" font-size="14.00"> &#160;Module</text>
<polygon fill="#80b1d3" stroke="transparent" points="563,-10 563,-30 583,-30 583,-10 563,-10"/>
<text text-anchor="start" x="586.78" y="-15.4" font-family="Times-12" font-size="14.00"> &#160;Bootstrap</text>
<polygon fill="#fdb462" stroke="transparent" points="660,-10 660,-30 680,-30 680,-10 660,-10"/>
<text text-anchor="start" x="683.67" y="-15.4" font-family="Times-12" font-size="14.00"> &#160;Providers</text>
<polygon fill="#fb8072" stroke="transparent" points="756,-10 756,-30 776,-30 776,-10 756,-10"/>
<text text-anchor="start" x="779.73" y="-15.4" font-family="Times-12" font-size="14.00"> &#160;Exports</text>
<g id="clust1" class="cluster">
<title>cluster_AppModule</title>
<polygon fill="none" stroke="black" stroke-dasharray="1,5" points="8,-70 8,-268 298,-268 298,-70 8,-70"/>
</g>
<g id="clust2" class="cluster">
<title>cluster_AppModule_declarations</title>
<polygon fill="none" stroke="black" points="168,-78 168,-130 290,-130 290,-78 168,-78"/>
</g>
<g id="clust4" class="cluster">
<title>cluster_AppModule_imports</title>
<polygon fill="none" stroke="black" points="16,-78 16,-130 160,-130 160,-78 16,-78"/>
</g>
<g id="clust6" class="cluster">
<title>cluster_AppModule_bootstrap</title>
<polygon fill="none" stroke="black" points="96,-208 96,-260 220,-260 220,-208 96,-208"/>
</g>
<g id="clust14" class="cluster">
<title>cluster_TabsPageModule</title>
<polygon fill="none" stroke="black" stroke-dasharray="1,5" points="306,-70 306,-195 592,-195 592,-70 306,-70"/>
</g>
<g id="clust15" class="cluster">
<title>cluster_TabsPageModule_declarations</title>
<polygon fill="none" stroke="black" points="498,-78 498,-130 584,-130 584,-78 498,-78"/>
</g>
<g id="clust17" class="cluster">
<title>cluster_TabsPageModule_imports</title>
<polygon fill="none" stroke="black" points="314,-78 314,-130 490,-130 490,-78 314,-78"/>
</g>
<g id="clust27" class="cluster">
<title>cluster_UserPageModule</title>
<polygon fill="none" stroke="black" stroke-dasharray="1,5" points="600,-70 600,-195 884,-195 884,-70 600,-70"/>
</g>
<g id="clust28" class="cluster">
<title>cluster_UserPageModule_declarations</title>
<polygon fill="none" stroke="black" points="790,-78 790,-130 876,-130 876,-78 790,-78"/>
</g>
<g id="clust30" class="cluster">
<title>cluster_UserPageModule_imports</title>
<polygon fill="none" stroke="black" points="608,-78 608,-130 782,-130 782,-78 608,-78"/>
</g>
<g id="clust40" class="cluster">
<title>cluster_UsersPageModule</title>
<polygon fill="none" stroke="black" stroke-dasharray="1,5" points="892,-70 892,-195 1188,-195 1188,-70 892,-70"/>
</g>
<g id="clust41" class="cluster">
<title>cluster_UsersPageModule_declarations</title>
<polygon fill="none" stroke="black" points="1088,-78 1088,-130 1180,-130 1180,-78 1088,-78"/>
</g>
<g id="clust43" class="cluster">
<title>cluster_UsersPageModule_imports</title>
<polygon fill="none" stroke="black" points="900,-78 900,-130 1080,-130 1080,-78 900,-78"/>
</g>
<!-- AppComponent -->
<g id="node1" class="node">
<title>AppComponent</title>
<polygon fill="#ffffb3" stroke="black" points="281.94,-122 176.06,-122 176.06,-86 281.94,-86 281.94,-122"/>
<text text-anchor="middle" x="229" y="-99.8" font-family="Times,serif" font-size="14.00">AppComponent</text>
</g>
<!-- AppModule -->
<g id="node2" class="node">
<title>AppModule</title>
<polygon fill="#8dd3c7" stroke="black" points="199.66,-187 196.66,-191 175.66,-191 172.66,-187 116.34,-187 116.34,-151 199.66,-151 199.66,-187"/>
<text text-anchor="middle" x="158" y="-164.8" font-family="Times,serif" font-size="14.00">AppModule</text>
</g>
<!-- AppComponent&#45;&gt;AppModule -->
<g id="edge1" class="edge">
<title>AppComponent&#45;&gt;AppModule</title>
<path fill="none" stroke="black" d="M188.05,-122.11C188.05,-122.11 188.05,-140.99 188.05,-140.99"/>
<polygon fill="black" stroke="black" points="184.55,-140.99 188.05,-150.99 191.55,-140.99 184.55,-140.99"/>
</g>
<!-- AppComponent  -->
<g id="node4" class="node">
<title>AppComponent </title>
<polygon fill="#80b1d3" stroke="black" points="212.44,-252 103.56,-252 103.56,-216 212.44,-216 212.44,-252"/>
<text text-anchor="middle" x="158" y="-229.8" font-family="Times,serif" font-size="14.00">AppComponent </text>
</g>
<!-- AppModule&#45;&gt;AppComponent  -->
<g id="edge3" class="edge">
<title>AppModule&#45;&gt;AppComponent </title>
<path fill="none" stroke="black" stroke-dasharray="1,5" d="M158,-187.11C158,-187.11 158,-205.99 158,-205.99"/>
<polygon fill="black" stroke="black" points="154.5,-205.99 158,-215.99 161.5,-205.99 154.5,-205.99"/>
</g>
<!-- AppRoutingModule -->
<g id="node3" class="node">
<title>AppRoutingModule</title>
<polygon fill="#8dd3c7" stroke="black" points="152.27,-122 149.27,-126 128.27,-126 125.27,-122 23.73,-122 23.73,-86 152.27,-86 152.27,-122"/>
<text text-anchor="middle" x="88" y="-99.8" font-family="Times,serif" font-size="14.00">AppRoutingModule</text>
</g>
<!-- AppRoutingModule&#45;&gt;AppModule -->
<g id="edge2" class="edge">
<title>AppRoutingModule&#45;&gt;AppModule</title>
<path fill="none" stroke="black" d="M134.28,-122.11C134.28,-122.11 134.28,-140.99 134.28,-140.99"/>
<polygon fill="black" stroke="black" points="130.78,-140.99 134.28,-150.99 137.78,-140.99 130.78,-140.99"/>
</g>
<!-- TabsPage -->
<g id="node5" class="node">
<title>TabsPage</title>
<polygon fill="#ffffb3" stroke="black" points="576.42,-122 505.58,-122 505.58,-86 576.42,-86 576.42,-122"/>
<text text-anchor="middle" x="541" y="-99.8" font-family="Times,serif" font-size="14.00">TabsPage</text>
</g>
<!-- TabsPageModule -->
<g id="node6" class="node">
<title>TabsPageModule</title>
<polygon fill="#8dd3c7" stroke="black" points="520.97,-187 517.97,-191 496.97,-191 493.97,-187 407.03,-187 407.03,-151 520.97,-151 520.97,-187"/>
<text text-anchor="middle" x="464" y="-164.8" font-family="Times,serif" font-size="14.00">TabsPageModule</text>
</g>
<!-- TabsPage&#45;&gt;TabsPageModule -->
<g id="edge4" class="edge">
<title>TabsPage&#45;&gt;TabsPageModule</title>
<path fill="none" stroke="black" d="M513.39,-122.11C513.39,-122.11 513.39,-140.99 513.39,-140.99"/>
<polygon fill="black" stroke="black" points="509.89,-140.99 513.39,-150.99 516.89,-140.99 509.89,-140.99"/>
</g>
<!-- TabsPageRoutingModule -->
<g id="node7" class="node">
<title>TabsPageRoutingModule</title>
<polygon fill="#8dd3c7" stroke="black" points="481.59,-122 478.59,-126 457.59,-126 454.59,-122 322.41,-122 322.41,-86 481.59,-86 481.59,-122"/>
<text text-anchor="middle" x="402" y="-99.8" font-family="Times,serif" font-size="14.00">TabsPageRoutingModule</text>
</g>
<!-- TabsPageRoutingModule&#45;&gt;TabsPageModule -->
<g id="edge5" class="edge">
<title>TabsPageRoutingModule&#45;&gt;TabsPageModule</title>
<path fill="none" stroke="black" d="M444.28,-122.11C444.28,-122.11 444.28,-140.99 444.28,-140.99"/>
<polygon fill="black" stroke="black" points="440.78,-140.99 444.28,-150.99 447.78,-140.99 440.78,-140.99"/>
</g>
<!-- UserPage -->
<g id="node8" class="node">
<title>UserPage</title>
<polygon fill="#ffffb3" stroke="black" points="867.64,-122 798.36,-122 798.36,-86 867.64,-86 867.64,-122"/>
<text text-anchor="middle" x="833" y="-99.8" font-family="Times,serif" font-size="14.00">UserPage</text>
</g>
<!-- UserPageModule -->
<g id="node9" class="node">
<title>UserPageModule</title>
<polygon fill="#8dd3c7" stroke="black" points="813.69,-187 810.69,-191 789.69,-191 786.69,-187 700.31,-187 700.31,-151 813.69,-151 813.69,-187"/>
<text text-anchor="middle" x="757" y="-164.8" font-family="Times,serif" font-size="14.00">UserPageModule</text>
</g>
<!-- UserPage&#45;&gt;UserPageModule -->
<g id="edge6" class="edge">
<title>UserPage&#45;&gt;UserPageModule</title>
<path fill="none" stroke="black" d="M805.89,-122.11C805.89,-122.11 805.89,-140.99 805.89,-140.99"/>
<polygon fill="black" stroke="black" points="802.39,-140.99 805.89,-150.99 809.39,-140.99 802.39,-140.99"/>
</g>
<!-- UserPageRoutingModule -->
<g id="node10" class="node">
<title>UserPageRoutingModule</title>
<polygon fill="#8dd3c7" stroke="black" points="774.31,-122 771.31,-126 750.31,-126 747.31,-122 615.69,-122 615.69,-86 774.31,-86 774.31,-122"/>
<text text-anchor="middle" x="695" y="-99.8" font-family="Times,serif" font-size="14.00">UserPageRoutingModule</text>
</g>
<!-- UserPageRoutingModule&#45;&gt;UserPageModule -->
<g id="edge7" class="edge">
<title>UserPageRoutingModule&#45;&gt;UserPageModule</title>
<path fill="none" stroke="black" d="M737.28,-122.11C737.28,-122.11 737.28,-140.99 737.28,-140.99"/>
<polygon fill="black" stroke="black" points="733.78,-140.99 737.28,-150.99 740.78,-140.99 733.78,-140.99"/>
</g>
<!-- UsersPage -->
<g id="node11" class="node">
<title>UsersPage</title>
<polygon fill="#ffffb3" stroke="black" points="1171.58,-122 1096.42,-122 1096.42,-86 1171.58,-86 1171.58,-122"/>
<text text-anchor="middle" x="1134" y="-99.8" font-family="Times,serif" font-size="14.00">UsersPage</text>
</g>
<!-- UsersPageModule -->
<g id="node12" class="node">
<title>UsersPageModule</title>
<polygon fill="#8dd3c7" stroke="black" points="1114.13,-187 1111.13,-191 1090.13,-191 1087.13,-187 995.87,-187 995.87,-151 1114.13,-151 1114.13,-187"/>
<text text-anchor="middle" x="1055" y="-164.8" font-family="Times,serif" font-size="14.00">UsersPageModule</text>
</g>
<!-- UsersPage&#45;&gt;UsersPageModule -->
<g id="edge8" class="edge">
<title>UsersPage&#45;&gt;UsersPageModule</title>
<path fill="none" stroke="black" d="M1105.39,-122.11C1105.39,-122.11 1105.39,-140.99 1105.39,-140.99"/>
<polygon fill="black" stroke="black" points="1101.89,-140.99 1105.39,-150.99 1108.89,-140.99 1101.89,-140.99"/>
</g>
<!-- UsersPageRoutingModule -->
<g id="node13" class="node">
<title>UsersPageRoutingModule</title>
<polygon fill="#8dd3c7" stroke="black" points="1071.75,-122 1068.75,-126 1047.75,-126 1044.75,-122 908.25,-122 908.25,-86 1071.75,-86 1071.75,-122"/>
<text text-anchor="middle" x="990" y="-99.8" font-family="Times,serif" font-size="14.00">UsersPageRoutingModule</text>
</g>
<!-- UsersPageRoutingModule&#45;&gt;UsersPageModule -->
<g id="edge9" class="edge">
<title>UsersPageRoutingModule&#45;&gt;UsersPageModule</title>
<path fill="none" stroke="black" d="M1033.78,-122.11C1033.78,-122.11 1033.78,-140.99 1033.78,-140.99"/>
<polygon fill="black" stroke="black" points="1030.28,-140.99 1033.78,-150.99 1037.28,-140.99 1030.28,-140.99"/>
</g>
</g>
</svg>
